<svg width="503" height="171" viewBox="0 0 503 171" fill="none" xmlns="http://www.w3.org/2000/svg">
<path d="M189 0L137.936 104.847H92.7875L117.386 74.2664L136.379 33.3887H65.0758L50.7529 63.6569H85.3147L0 171L35.4959 91.1168H0L44.8369 0H189Z" fill="#FF2929"/>
<path d="M219.615 110H192.84C185.757 110 180.487 108.583 177.03 105.75C173.63 102.917 171.93 98.5533 171.93 92.66V66.14C171.93 60.2467 173.63 55.8833 177.03 53.05C180.487 50.2167 185.757 48.8 192.84 48.8H214.09C215.167 48.8 215.932 49.055 216.385 49.565C216.895 50.0183 217.15 50.7833 217.15 51.86V62.145C217.15 63.2217 216.895 64.015 216.385 64.525C215.932 64.9783 215.167 65.205 214.09 65.205H196.41C194.653 65.205 193.35 65.5733 192.5 66.31C191.65 66.99 191.225 68.0383 191.225 69.455V89.77C191.225 91.1867 191.537 92.235 192.16 92.915C192.84 93.595 193.832 93.935 195.135 93.935H203.38V80.675C203.38 79.5983 203.607 78.8333 204.06 78.38C204.57 77.87 205.363 77.615 206.44 77.615H219.615C220.692 77.615 221.457 77.87 221.91 78.38C222.42 78.8333 222.675 79.5983 222.675 80.675V106.94C222.675 108.017 222.42 108.81 221.91 109.32C221.457 109.773 220.692 110 219.615 110ZM261.497 110H247.727C246.651 110 245.857 109.773 245.347 109.32C244.894 108.81 244.667 108.017 244.667 106.94V96.06L231.662 78.635C230.359 76.8783 229.481 75.3483 229.027 74.045C228.631 72.7417 228.432 70.7867 228.432 68.18V51.86C228.432 50.7833 228.659 50.0183 229.112 49.565C229.622 49.055 230.416 48.8 231.492 48.8H244.582C245.659 48.8 246.424 49.055 246.877 49.565C247.387 50.0183 247.642 50.7833 247.642 51.86V65.8C247.642 66.3667 247.671 66.9617 247.727 67.585C247.784 68.2083 248.011 68.8033 248.407 69.37L252.317 75.49C252.601 76 252.884 76.3683 253.167 76.595C253.507 76.8217 253.904 76.935 254.357 76.935H255.207C255.661 76.935 256.029 76.8217 256.312 76.595C256.652 76.3683 256.964 76 257.247 75.49L261.157 69.37C261.554 68.8033 261.781 68.2083 261.837 67.585C261.894 66.9617 261.922 66.3667 261.922 65.8V51.86C261.922 50.7833 262.149 50.0183 262.602 49.565C263.112 49.055 263.906 48.8 264.982 48.8H277.647C278.724 48.8 279.489 49.055 279.942 49.565C280.452 50.0183 280.707 50.7833 280.707 51.86V68.18C280.707 70.7867 280.481 72.7417 280.027 74.045C279.574 75.3483 278.724 76.8783 277.477 78.635L264.557 96.145V106.94C264.557 108.017 264.302 108.81 263.792 109.32C263.339 109.773 262.574 110 261.497 110ZM306.129 110H293.464C292.387 110 291.594 109.773 291.084 109.32C290.631 108.81 290.404 108.017 290.404 106.94V51.86C290.404 50.7833 290.631 50.0183 291.084 49.565C291.594 49.055 292.387 48.8 293.464 48.8H307.149C308.056 48.8 308.792 48.9983 309.359 49.395C309.982 49.7917 310.549 50.4433 311.059 51.35L318.709 65.205C318.992 65.715 319.219 66.0833 319.389 66.31C319.616 66.5367 319.899 66.65 320.239 66.65H321.004C321.344 66.65 321.599 66.5367 321.769 66.31C321.996 66.0833 322.251 65.715 322.534 65.205L330.099 51.35C330.609 50.4433 331.147 49.7917 331.714 49.395C332.337 48.9983 333.102 48.8 334.009 48.8H347.779C348.856 48.8 349.621 49.055 350.074 49.565C350.584 50.0183 350.839 50.7833 350.839 51.86V106.94C350.839 108.017 350.584 108.81 350.074 109.32C349.621 109.773 348.856 110 347.779 110H334.689C333.612 110 332.819 109.773 332.309 109.32C331.856 108.81 331.629 108.017 331.629 106.94V77.02L326.614 86.285C326.104 87.2483 325.481 87.9567 324.744 88.41C324.064 88.8067 323.186 89.005 322.109 89.005H318.709C317.632 89.005 316.726 88.8067 315.989 88.41C315.309 87.9567 314.714 87.2483 314.204 86.285L309.189 77.02V106.94C309.189 108.017 308.934 108.81 308.424 109.32C307.971 109.773 307.206 110 306.129 110ZM433.48 93.935C433.48 96.5417 433.083 98.9217 432.29 101.075C431.553 103.172 430.193 104.985 428.21 106.515C426.283 107.988 423.591 109.15 420.135 110C416.735 110.85 412.4 111.275 407.13 111.275C401.86 111.275 397.496 110.85 394.04 110C390.583 109.15 387.863 107.988 385.88 106.515C383.953 104.985 382.593 103.172 381.8 101.075C381.063 98.9217 380.695 96.5417 380.695 93.935V64.95C380.695 62.3433 381.063 59.9917 381.8 57.895C382.593 55.7417 383.953 53.9 385.88 52.37C387.863 50.84 390.583 49.65 394.04 48.8C397.496 47.95 401.86 47.525 407.13 47.525C412.4 47.525 416.735 47.95 420.135 48.8C423.591 49.65 426.283 50.84 428.21 52.37C430.193 53.9 431.553 55.7417 432.29 57.895C433.083 59.9917 433.48 62.3433 433.48 64.95V93.935ZM399.99 90.875C399.99 92.0083 400.415 92.9717 401.265 93.765C402.115 94.5017 404.07 94.87 407.13 94.87C410.19 94.87 412.145 94.5017 412.995 93.765C413.845 92.9717 414.27 92.0083 414.27 90.875V68.01C414.27 66.9333 413.845 66.0267 412.995 65.29C412.145 64.4967 410.19 64.1 407.13 64.1C404.07 64.1 402.115 64.4967 401.265 65.29C400.415 66.0267 399.99 66.9333 399.99 68.01V90.875ZM460.111 110H447.361C446.284 110 445.491 109.773 444.981 109.32C444.527 108.81 444.301 108.017 444.301 106.94V51.86C444.301 50.7833 444.527 50.0183 444.981 49.565C445.491 49.055 446.284 48.8 447.361 48.8H456.201C457.277 48.8 458.184 48.97 458.921 49.31C459.714 49.65 460.479 50.245 461.216 51.095L477.706 69.965V51.86C477.706 50.7833 477.932 50.0183 478.386 49.565C478.896 49.055 479.689 48.8 480.766 48.8H493.516C494.592 48.8 495.357 49.055 495.811 49.565C496.321 50.0183 496.576 50.7833 496.576 51.86V106.94C496.576 108.017 496.321 108.81 495.811 109.32C495.357 109.773 494.592 110 493.516 110H480.766C479.689 110 478.896 109.773 478.386 109.32C477.932 108.81 477.706 108.017 477.706 106.94V96.485L463.171 78.89V106.94C463.171 108.017 462.916 108.81 462.406 109.32C461.952 109.773 461.187 110 460.111 110Z" fill="white"/>
<path d="M69.924 148.276C67.486 148.276 65.5923 147.624 64.243 146.321C62.8937 145.002 62.219 142.932 62.219 140.111C62.219 138.256 62.5333 136.73 63.162 135.534C63.806 134.323 64.726 133.426 65.922 132.843C67.1333 132.245 68.5823 131.946 70.269 131.946C71.281 131.946 72.2317 132.061 73.121 132.291C74.0103 132.521 74.7923 132.874 75.467 133.349C76.157 133.809 76.6937 134.392 77.077 135.097C77.4603 135.802 77.652 136.638 77.652 137.604H74.57C74.57 137.098 74.455 136.653 74.225 136.27C74.0103 135.871 73.7037 135.542 73.305 135.281C72.9217 135.005 72.477 134.806 71.971 134.683C71.465 134.545 70.9283 134.476 70.361 134.476C69.5177 134.476 68.774 134.591 68.13 134.821C67.5013 135.036 66.9723 135.373 66.543 135.833C66.129 136.278 65.8147 136.837 65.6 137.512C65.4007 138.187 65.301 138.976 65.301 139.881V140.364C65.301 141.606 65.4773 142.626 65.83 143.423C66.1827 144.22 66.7117 144.811 67.417 145.194C68.1377 145.562 69.027 145.746 70.085 145.746C70.9897 145.746 71.7793 145.608 72.454 145.332C73.144 145.056 73.6807 144.657 74.064 144.136C74.4627 143.599 74.662 142.948 74.662 142.181V142.02H69.625V139.536H77.652V148H75.513L75.26 146.252C74.8 146.712 74.3093 147.095 73.788 147.402C73.2667 147.693 72.6917 147.908 72.063 148.046C71.4343 148.199 70.7213 148.276 69.924 148.276ZM86.7127 148V141.583L80.6407 132.222H84.0907L88.2537 138.892H88.3687L92.4857 132.222H95.7517L89.7027 141.583V148H86.7127ZM98.8742 148V132.222H103.589L106.073 141.008C106.165 141.315 106.257 141.66 106.349 142.043C106.441 142.426 106.526 142.794 106.602 143.147C106.694 143.5 106.763 143.806 106.809 144.067H106.993C107.024 143.837 107.07 143.553 107.131 143.216C107.193 142.879 107.262 142.518 107.338 142.135C107.43 141.736 107.53 141.353 107.637 140.985L110.121 132.222H114.79V148H111.8V140.019C111.8 139.314 111.808 138.608 111.823 137.903C111.839 137.198 111.854 136.592 111.869 136.086C111.9 135.58 111.915 135.281 111.915 135.189H111.731C111.701 135.327 111.624 135.626 111.501 136.086C111.379 136.546 111.248 137.044 111.11 137.581C110.972 138.118 110.85 138.578 110.742 138.961L108.143 148H105.383L102.784 138.984C102.692 138.662 102.585 138.279 102.462 137.834C102.355 137.374 102.24 136.906 102.117 136.431C102.01 135.956 101.91 135.542 101.818 135.189H101.634C101.65 135.603 101.665 136.101 101.68 136.684C101.696 137.251 101.711 137.834 101.726 138.432C101.742 139.015 101.749 139.544 101.749 140.019V148H98.8742ZM125.185 148V132.222H136.524V134.775H128.175V139.007H135.696V141.56H128.175V148H125.185ZM140.351 148V132.222H143.341V148H140.351ZM151.856 148V134.798H146.819V132.222H159.906V134.798H154.846V148H151.856ZM163.382 148V132.222H166.234L172.973 141.537C173.05 141.629 173.142 141.759 173.249 141.928C173.356 142.081 173.456 142.235 173.548 142.388C173.64 142.541 173.701 142.664 173.732 142.756H173.847C173.847 142.541 173.847 142.334 173.847 142.135C173.847 141.936 173.847 141.736 173.847 141.537V132.222H176.722V148H173.893L167.131 138.616C167.008 138.432 166.863 138.21 166.694 137.949C166.541 137.673 166.433 137.481 166.372 137.374H166.257C166.257 137.573 166.257 137.78 166.257 137.995C166.257 138.194 166.257 138.401 166.257 138.616V148H163.382ZM181.378 148V132.222H193.683V134.775H184.368V138.662H192.671V141.215H184.368V145.447H193.821V148H181.378ZM203.869 148.276C202.995 148.276 202.159 148.184 201.362 148C200.564 147.801 199.859 147.502 199.246 147.103C198.632 146.689 198.149 146.183 197.797 145.585C197.444 144.972 197.268 144.251 197.268 143.423C197.268 143.331 197.268 143.239 197.268 143.147C197.283 143.055 197.291 142.986 197.291 142.94H200.304C200.304 142.971 200.296 143.032 200.281 143.124C200.281 143.201 200.281 143.27 200.281 143.331C200.281 143.837 200.426 144.274 200.718 144.642C201.009 144.995 201.431 145.271 201.983 145.47C202.535 145.654 203.186 145.746 203.938 145.746C204.444 145.746 204.888 145.715 205.272 145.654C205.67 145.593 206.008 145.508 206.284 145.401C206.575 145.278 206.813 145.14 206.997 144.987C207.181 144.818 207.311 144.634 207.388 144.435C207.48 144.236 207.526 144.021 207.526 143.791C207.526 143.346 207.388 142.978 207.112 142.687C206.836 142.396 206.46 142.15 205.985 141.951C205.525 141.752 204.996 141.575 204.398 141.422C203.815 141.253 203.209 141.085 202.581 140.916C201.967 140.747 201.362 140.548 200.764 140.318C200.181 140.073 199.652 139.781 199.177 139.444C198.717 139.107 198.349 138.685 198.073 138.179C197.797 137.658 197.659 137.037 197.659 136.316C197.659 135.58 197.812 134.936 198.119 134.384C198.441 133.832 198.885 133.38 199.453 133.027C200.035 132.659 200.71 132.391 201.477 132.222C202.243 132.038 203.079 131.946 203.984 131.946C204.827 131.946 205.617 132.038 206.353 132.222C207.104 132.391 207.763 132.667 208.331 133.05C208.898 133.418 209.343 133.893 209.665 134.476C209.987 135.043 210.148 135.726 210.148 136.523V136.799H207.181V136.569C207.181 136.124 207.043 135.749 206.767 135.442C206.506 135.135 206.13 134.898 205.64 134.729C205.164 134.56 204.605 134.476 203.961 134.476C203.271 134.476 202.68 134.545 202.19 134.683C201.699 134.806 201.323 134.997 201.063 135.258C200.802 135.503 200.672 135.81 200.672 136.178C200.672 136.561 200.81 136.883 201.086 137.144C201.362 137.405 201.73 137.627 202.19 137.811C202.665 137.995 203.194 138.164 203.777 138.317C204.375 138.47 204.98 138.639 205.594 138.823C206.222 138.992 206.828 139.191 207.411 139.421C208.009 139.651 208.538 139.942 208.998 140.295C209.473 140.632 209.849 141.054 210.125 141.56C210.401 142.066 210.539 142.672 210.539 143.377C210.539 144.558 210.247 145.508 209.665 146.229C209.097 146.95 208.308 147.471 207.296 147.793C206.299 148.115 205.157 148.276 203.869 148.276ZM220.36 148.276C219.486 148.276 218.65 148.184 217.853 148C217.055 147.801 216.35 147.502 215.737 147.103C215.123 146.689 214.64 146.183 214.288 145.585C213.935 144.972 213.759 144.251 213.759 143.423C213.759 143.331 213.759 143.239 213.759 143.147C213.774 143.055 213.782 142.986 213.782 142.94H216.795C216.795 142.971 216.787 143.032 216.772 143.124C216.772 143.201 216.772 143.27 216.772 143.331C216.772 143.837 216.917 144.274 217.209 144.642C217.5 144.995 217.922 145.271 218.474 145.47C219.026 145.654 219.677 145.746 220.429 145.746C220.935 145.746 221.379 145.715 221.763 145.654C222.161 145.593 222.499 145.508 222.775 145.401C223.066 145.278 223.304 145.14 223.488 144.987C223.672 144.818 223.802 144.634 223.879 144.435C223.971 144.236 224.017 144.021 224.017 143.791C224.017 143.346 223.879 142.978 223.603 142.687C223.327 142.396 222.951 142.15 222.476 141.951C222.016 141.752 221.487 141.575 220.889 141.422C220.306 141.253 219.7 141.085 219.072 140.916C218.458 140.747 217.853 140.548 217.255 140.318C216.672 140.073 216.143 139.781 215.668 139.444C215.208 139.107 214.84 138.685 214.564 138.179C214.288 137.658 214.15 137.037 214.15 136.316C214.15 135.58 214.303 134.936 214.61 134.384C214.932 133.832 215.376 133.38 215.944 133.027C216.526 132.659 217.201 132.391 217.968 132.222C218.734 132.038 219.57 131.946 220.475 131.946C221.318 131.946 222.108 132.038 222.844 132.222C223.595 132.391 224.254 132.667 224.822 133.05C225.389 133.418 225.834 133.893 226.156 134.476C226.478 135.043 226.639 135.726 226.639 136.523V136.799H223.672V136.569C223.672 136.124 223.534 135.749 223.258 135.442C222.997 135.135 222.621 134.898 222.131 134.729C221.655 134.56 221.096 134.476 220.452 134.476C219.762 134.476 219.171 134.545 218.681 134.683C218.19 134.806 217.814 134.997 217.554 135.258C217.293 135.503 217.163 135.81 217.163 136.178C217.163 136.561 217.301 136.883 217.577 137.144C217.853 137.405 218.221 137.627 218.681 137.811C219.156 137.995 219.685 138.164 220.268 138.317C220.866 138.47 221.471 138.639 222.085 138.823C222.713 138.992 223.319 139.191 223.902 139.421C224.5 139.651 225.029 139.942 225.489 140.295C225.964 140.632 226.34 141.054 226.616 141.56C226.892 142.066 227.03 142.672 227.03 143.377C227.03 144.558 226.738 145.508 226.156 146.229C225.588 146.95 224.799 147.471 223.787 147.793C222.79 148.115 221.648 148.276 220.36 148.276ZM242.467 148.276C241.24 148.276 240.152 148.1 239.201 147.747C238.266 147.379 237.53 146.858 236.993 146.183C236.456 145.508 236.188 144.703 236.188 143.768C236.188 142.679 236.479 141.828 237.062 141.215C237.66 140.586 238.404 140.149 239.293 139.904V139.812C238.511 139.475 237.859 139.045 237.338 138.524C236.817 138.003 236.556 137.251 236.556 136.27C236.556 135.335 236.809 134.545 237.315 133.901C237.836 133.257 238.557 132.774 239.477 132.452C240.412 132.115 241.493 131.946 242.72 131.946C243.901 131.946 244.936 132.122 245.825 132.475C246.714 132.828 247.412 133.334 247.918 133.993C248.424 134.637 248.677 135.396 248.677 136.27V136.845H245.871V136.477C245.871 135.971 245.741 135.557 245.48 135.235C245.235 134.898 244.874 134.652 244.399 134.499C243.924 134.33 243.349 134.246 242.674 134.246C242.168 134.246 241.708 134.3 241.294 134.407C240.895 134.499 240.558 134.645 240.282 134.844C240.006 135.043 239.791 135.289 239.638 135.58C239.5 135.871 239.431 136.209 239.431 136.592C239.431 137.083 239.554 137.497 239.799 137.834C240.06 138.171 240.397 138.424 240.811 138.593C241.225 138.762 241.67 138.846 242.145 138.846H243.686V141.146H242.214C241.677 141.146 241.164 141.215 240.673 141.353C240.198 141.476 239.814 141.706 239.523 142.043C239.232 142.38 239.086 142.871 239.086 143.515C239.086 144.082 239.224 144.55 239.5 144.918C239.776 145.271 240.167 145.539 240.673 145.723C241.194 145.892 241.815 145.976 242.536 145.976C243.287 145.976 243.908 145.884 244.399 145.7C244.89 145.501 245.258 145.209 245.503 144.826C245.748 144.443 245.871 143.983 245.871 143.446V138.846H250.793V141.146H248.677V143.377C248.677 144.358 248.439 145.217 247.964 145.953C247.504 146.689 246.814 147.264 245.894 147.678C244.974 148.077 243.832 148.276 242.467 148.276ZM263.137 148L258.859 132.222H262.033L264.586 142.365C264.632 142.518 264.678 142.733 264.724 143.009C264.77 143.27 264.816 143.546 264.862 143.837C264.908 144.128 264.947 144.389 264.977 144.619H265.092C265.123 144.435 265.146 144.236 265.161 144.021C265.192 143.806 265.223 143.592 265.253 143.377C265.299 143.162 265.338 142.971 265.368 142.802C265.399 142.618 265.422 142.472 265.437 142.365L267.806 132.222H271.647L274.016 142.365C274.062 142.518 274.108 142.733 274.154 143.009C274.2 143.27 274.246 143.546 274.292 143.837C274.338 144.128 274.377 144.389 274.407 144.619H274.522C274.553 144.45 274.584 144.266 274.614 144.067C274.66 143.852 274.699 143.645 274.729 143.446C274.775 143.231 274.821 143.032 274.867 142.848C274.913 142.664 274.952 142.503 274.982 142.365L277.535 132.222H280.341L276.04 148H272.613L270.06 137.65C270.014 137.435 269.961 137.19 269.899 136.914C269.853 136.623 269.807 136.339 269.761 136.063C269.731 135.772 269.7 135.519 269.669 135.304H269.577C269.562 135.534 269.531 135.802 269.485 136.109C269.455 136.4 269.416 136.684 269.37 136.96C269.324 137.236 269.278 137.466 269.232 137.65L266.702 148H263.137ZM290.38 148.276C288.739 148.276 287.321 147.985 286.125 147.402C284.929 146.804 284.009 145.899 283.365 144.688C282.736 143.477 282.422 141.951 282.422 140.111C282.422 138.256 282.736 136.73 283.365 135.534C284.009 134.323 284.929 133.426 286.125 132.843C287.321 132.245 288.739 131.946 290.38 131.946C292.036 131.946 293.454 132.245 294.635 132.843C295.831 133.426 296.743 134.323 297.372 135.534C298.016 136.73 298.338 138.256 298.338 140.111C298.338 141.951 298.016 143.477 297.372 144.688C296.743 145.899 295.831 146.804 294.635 147.402C293.454 147.985 292.036 148.276 290.38 148.276ZM290.38 145.746C291.177 145.746 291.875 145.631 292.473 145.401C293.086 145.171 293.6 144.834 294.014 144.389C294.428 143.929 294.742 143.369 294.957 142.71C295.171 142.035 295.279 141.261 295.279 140.387V139.881C295.279 138.992 295.171 138.21 294.957 137.535C294.742 136.86 294.428 136.301 294.014 135.856C293.6 135.396 293.086 135.051 292.473 134.821C291.875 134.591 291.177 134.476 290.38 134.476C289.582 134.476 288.877 134.591 288.264 134.821C287.666 135.051 287.16 135.396 286.746 135.856C286.332 136.301 286.017 136.86 285.803 137.535C285.603 138.21 285.504 138.992 285.504 139.881V140.387C285.504 141.261 285.603 142.035 285.803 142.71C286.017 143.369 286.332 143.929 286.746 144.389C287.16 144.834 287.666 145.171 288.264 145.401C288.877 145.631 289.582 145.746 290.38 145.746ZM302.276 148V132.222H310.579C311.744 132.222 312.71 132.421 313.477 132.82C314.244 133.219 314.819 133.786 315.202 134.522C315.585 135.258 315.777 136.124 315.777 137.121C315.777 138.148 315.547 139.061 315.087 139.858C314.627 140.64 313.952 141.23 313.063 141.629L316.329 148H313.063L310.165 142.135H305.266V148H302.276ZM305.266 139.628H310.349C311.116 139.628 311.706 139.406 312.12 138.961C312.534 138.516 312.741 137.903 312.741 137.121C312.741 136.615 312.649 136.193 312.465 135.856C312.281 135.503 312.013 135.235 311.66 135.051C311.307 134.867 310.87 134.775 310.349 134.775H305.266V139.628ZM319.912 148V132.222H322.902V139.536L329.894 132.222H333.551L327.433 138.616L333.666 148H330.124L325.409 140.709L322.902 142.917V148H319.912ZM343.042 148.276C341.401 148.276 339.983 147.985 338.787 147.402C337.591 146.804 336.671 145.899 336.027 144.688C335.398 143.477 335.084 141.951 335.084 140.111C335.084 138.256 335.398 136.73 336.027 135.534C336.671 134.323 337.591 133.426 338.787 132.843C339.983 132.245 341.401 131.946 343.042 131.946C344.698 131.946 346.116 132.245 347.297 132.843C348.493 133.426 349.405 134.323 350.034 135.534C350.678 136.73 351 138.256 351 140.111C351 141.951 350.678 143.477 350.034 144.688C349.405 145.899 348.493 146.804 347.297 147.402C346.116 147.985 344.698 148.276 343.042 148.276ZM343.042 145.746C343.839 145.746 344.537 145.631 345.135 145.401C345.748 145.171 346.262 144.834 346.676 144.389C347.09 143.929 347.404 143.369 347.619 142.71C347.833 142.035 347.941 141.261 347.941 140.387V139.881C347.941 138.992 347.833 138.21 347.619 137.535C347.404 136.86 347.09 136.301 346.676 135.856C346.262 135.396 345.748 135.051 345.135 134.821C344.537 134.591 343.839 134.476 343.042 134.476C342.244 134.476 341.539 134.591 340.926 134.821C340.328 135.051 339.822 135.396 339.408 135.856C338.994 136.301 338.679 136.86 338.465 137.535C338.265 138.21 338.166 138.992 338.166 139.881V140.387C338.166 141.261 338.265 142.035 338.465 142.71C338.679 143.369 338.994 143.929 339.408 144.389C339.822 144.834 340.328 145.171 340.926 145.401C341.539 145.631 342.244 145.746 343.042 145.746ZM361.493 148.276C360.113 148.276 358.925 148.054 357.928 147.609C356.931 147.164 356.165 146.49 355.628 145.585C355.107 144.665 354.846 143.523 354.846 142.158V132.222H357.836V142.066C357.836 143.277 358.15 144.197 358.779 144.826C359.423 145.439 360.328 145.746 361.493 145.746C362.658 145.746 363.563 145.439 364.207 144.826C364.866 144.197 365.196 143.277 365.196 142.066V132.222H368.186V142.158C368.186 143.523 367.918 144.665 367.381 145.585C366.844 146.49 366.078 147.164 365.081 147.609C364.084 148.054 362.888 148.276 361.493 148.276ZM376.595 148V134.798H371.558V132.222H384.645V134.798H379.585V148H376.595ZM397.74 148V134.798H392.703V132.222H405.79V134.798H400.73V148H397.74ZM409.266 148V132.222H417.569C418.735 132.222 419.701 132.421 420.467 132.82C421.234 133.219 421.809 133.786 422.192 134.522C422.576 135.258 422.767 136.124 422.767 137.121C422.767 138.148 422.537 139.061 422.077 139.858C421.617 140.64 420.943 141.23 420.053 141.629L423.319 148H420.053L417.155 142.135H412.256V148H409.266ZM412.256 139.628H417.339C418.106 139.628 418.696 139.406 419.11 138.961C419.524 138.516 419.731 137.903 419.731 137.121C419.731 136.615 419.639 136.193 419.455 135.856C419.271 135.503 419.003 135.235 418.65 135.051C418.298 134.867 417.861 134.775 417.339 134.775H412.256V139.628ZM425.27 148L431.411 132.222H435.183L441.347 148H438.104L436.839 144.642H429.617L428.352 148H425.27ZM430.56 142.112H435.873L434.286 137.834C434.224 137.681 434.148 137.489 434.056 137.259C433.979 137.014 433.895 136.753 433.803 136.477C433.711 136.186 433.619 135.894 433.527 135.603C433.435 135.312 433.35 135.051 433.274 134.821H433.159C433.067 135.128 432.952 135.48 432.814 135.879C432.691 136.278 432.568 136.653 432.446 137.006C432.323 137.359 432.223 137.635 432.147 137.834L430.56 142.112ZM444.359 148V132.222H447.349V148H444.359ZM452.001 148V132.222H454.853L461.592 141.537C461.668 141.629 461.76 141.759 461.868 141.928C461.975 142.081 462.075 142.235 462.167 142.388C462.259 142.541 462.32 142.664 462.351 142.756H462.466C462.466 142.541 462.466 142.334 462.466 142.135C462.466 141.936 462.466 141.736 462.466 141.537V132.222H465.341V148H462.512L455.75 138.616C455.627 138.432 455.481 138.21 455.313 137.949C455.159 137.673 455.052 137.481 454.991 137.374H454.876C454.876 137.573 454.876 137.78 454.876 137.995C454.876 138.194 454.876 138.401 454.876 138.616V148H452.001ZM469.996 148V132.222H482.301V134.775H472.986V138.662H481.289V141.215H472.986V145.447H482.439V148H469.996ZM486.599 148V132.222H494.902C496.068 132.222 497.034 132.421 497.8 132.82C498.567 133.219 499.142 133.786 499.525 134.522C499.909 135.258 500.1 136.124 500.1 137.121C500.1 138.148 499.87 139.061 499.41 139.858C498.95 140.64 498.276 141.23 497.386 141.629L500.652 148H497.386L494.488 142.135H489.589V148H486.599ZM489.589 139.628H494.672C495.439 139.628 496.029 139.406 496.443 138.961C496.857 138.516 497.064 137.903 497.064 137.121C497.064 136.615 496.972 136.193 496.788 135.856C496.604 135.503 496.336 135.235 495.983 135.051C495.631 134.867 495.194 134.775 494.672 134.775H489.589V139.628Z" fill="#C8C8C8"/>
</svg>
